<svg width="174" height="149" viewBox="0 0 174 149" fill="none" xmlns="http://www.w3.org/2000/svg">
<path d="M13.8178 69.7043C13.1798 68.9493 12.8608 68.2708 12.8608 67.6724C12.8608 67.0705 13.3865 66.2738 14.4413 65.2857C15.054 64.7203 15.7047 64.4368 16.3916 64.4368C17.0822 64.4368 18.041 65.0265 19.2698 66.2042C19.6124 66.6043 20.1036 66.987 20.7416 67.3523C21.3796 67.7194 21.9687 67.902 22.5106 67.902C24.7907 67.902 25.9326 67.0079 25.9326 65.2161C25.9326 64.6734 25.6172 64.2211 24.9901 63.8593C24.3666 63.4939 23.5872 63.226 22.6556 63.059C21.7222 62.892 20.7144 62.6276 19.6323 62.2658C18.5539 61.9005 17.548 61.4708 16.6163 60.9785C15.6829 60.4827 14.9017 59.6982 14.2746 58.6266C13.6511 57.555 13.3393 56.2642 13.3393 54.7508C13.3393 52.6772 14.1405 50.8715 15.7463 49.3302C17.3558 47.7855 19.5472 47.0131 22.3221 47.0131C23.7957 47.0131 25.1387 47.1975 26.3531 47.5628C27.5711 47.9299 28.4121 48.3004 28.8761 48.6762L29.7968 49.3442C30.5599 50.0313 30.9423 50.6106 30.9423 51.0837C30.9423 51.5534 30.6469 52.2006 30.0578 53.0251C29.2205 54.2046 28.3613 54.7925 27.4768 54.7925C26.9639 54.7925 26.3259 54.556 25.5628 54.0828C25.4903 54.0376 25.349 53.921 25.1423 53.7349C24.9339 53.5453 24.7436 53.3904 24.5696 53.2687C24.0512 52.9625 23.3951 52.8094 22.5976 52.8094C21.8001 52.8094 21.1367 52.9938 20.6111 53.3591C20.0837 53.7262 19.8208 54.2341 19.8208 54.883C19.8208 55.5284 20.1326 56.052 20.7561 56.4556C21.3832 56.8557 22.1644 57.1271 23.0978 57.2697C24.0295 57.4089 25.0481 57.6281 26.1501 57.9238C27.2557 58.216 28.2762 58.5744 29.2096 58.9954C30.1412 59.4181 30.9206 60.1539 31.5441 61.2012C32.1712 62.2501 32.4866 63.5426 32.4866 65.077C32.4866 66.6078 32.1676 67.956 31.5296 69.1198C30.8916 70.2853 30.0578 71.1864 29.0283 71.8265C27.0364 73.0756 24.9122 73.6983 22.6556 73.6983C21.4992 73.6983 20.4081 73.5626 19.3786 73.2948C18.3491 73.0216 17.5153 72.6859 16.8773 72.2858C15.5723 71.5308 14.6625 70.8002 14.1513 70.0939L13.8178 69.7043Z" fill="black"/>
<path d="M49.3474 60.3383C53.1029 63.8036 55.7655 66.406 57.3369 68.1456C58.1489 69.0189 58.5549 69.7564 58.5549 70.3583C58.5549 70.9568 58.0619 71.6648 57.0759 72.4806C56.0936 73.293 55.2888 73.6983 54.6617 73.6983C54.0382 73.6983 53.286 73.2026 52.4069 72.2093L44.3014 63.3443V70.2331C44.3014 70.8002 44.2815 71.2125 44.2434 71.4717C44.209 71.7326 44.093 72.0388 43.8954 72.3902C43.5511 73.0269 42.5941 73.3435 41.0244 73.3435C39.308 73.3435 38.3021 72.8964 38.0084 72.0005C37.858 71.6248 37.7837 71.0246 37.7837 70.1983V50.548C37.7837 50.0052 37.8 49.5999 37.8344 49.3302C37.8725 49.0571 37.9903 48.744 38.1897 48.3909C38.5323 47.7559 39.4893 47.4376 41.0607 47.4376C42.7808 47.4376 43.8012 47.8742 44.1202 48.7457C44.2398 49.1459 44.3014 49.7582 44.3014 50.5827V57.3323C47.6401 53.7279 50.3425 50.7706 52.4069 48.4605C53.2624 47.4967 54.0092 47.0131 54.6472 47.0131C55.2852 47.0131 56.0936 47.4219 57.0759 48.2378C58.0619 49.0502 58.5549 49.7582 58.5549 50.3601C58.5549 50.9585 58.1852 51.6682 57.4457 52.4893C56.0247 54.0724 53.8153 56.2399 50.8192 58.9954L49.3474 60.3383Z" fill="black"/>
<path d="M82.9578 68.1108H92.9773C93.7839 68.1108 94.3711 68.1995 94.7391 68.3752C95.1106 68.5526 95.3571 68.831 95.4786 69.2102C95.5982 69.586 95.6598 70.087 95.6598 70.7132C95.6598 71.336 95.5982 71.837 95.4786 72.2162C95.3571 72.592 95.1487 72.8494 94.8551 72.9886C94.3856 73.2252 93.7476 73.3435 92.9411 73.3435H79.6808C77.9644 73.3435 76.9584 72.8964 76.6648 72.0005C76.5144 71.6248 76.4401 71.0246 76.4401 70.1983V50.548C76.4401 50.0052 76.4564 49.5999 76.4908 49.3303C76.5289 49.0571 76.6467 48.744 76.8461 48.3909C77.1886 47.7559 78.1456 47.4376 79.7171 47.4376C81.4371 47.4376 82.4576 47.8742 82.7766 48.7458C82.8962 49.1459 82.9578 49.7582 82.9578 50.5828V68.1108Z" fill="black"/>
<path d="M107.477 68.1108H117.496C118.303 68.1108 118.89 68.1995 119.258 68.3752C119.63 68.5526 119.876 68.831 119.998 69.2102C120.117 69.586 120.179 70.087 120.179 70.7132C120.179 71.336 120.117 71.837 119.998 72.2162C119.876 72.592 119.668 72.8494 119.374 72.9886C118.905 73.2252 118.267 73.3435 117.46 73.3435H104.2C102.483 73.3435 101.477 72.8964 101.184 72.0005C101.033 71.6248 100.959 71.0246 100.959 70.1983V50.548C100.959 50.0052 100.975 49.5999 101.01 49.3303C101.048 49.0571 101.166 48.744 101.365 48.3909C101.708 47.7559 102.665 47.4376 104.236 47.4376C105.956 47.4376 106.977 47.8742 107.296 48.7458C107.415 49.1459 107.477 49.7582 107.477 50.5828V68.1108Z" fill="black"/>
<path d="M125.884 69.7043C125.246 68.9493 124.927 68.2708 124.927 67.6724C124.927 67.0705 125.453 66.2738 126.508 65.2857C127.12 64.7203 127.771 64.4368 128.458 64.4368C129.148 64.4368 130.107 65.0265 131.336 66.2042C131.679 66.6043 132.17 66.987 132.808 67.3523C133.446 67.7194 134.035 67.902 134.577 67.902C136.857 67.902 137.999 67.0079 137.999 65.2161C137.999 64.6734 137.683 64.2211 137.056 63.8593C136.433 63.4939 135.653 63.226 134.722 63.059C133.788 62.892 132.781 62.6276 131.699 62.2658C130.62 61.9005 129.614 61.4708 128.683 60.9785C127.749 60.4827 126.968 59.6982 126.341 58.6266C125.717 57.555 125.406 56.2642 125.406 54.7508C125.406 52.6772 126.207 50.8715 127.813 49.3302C129.422 47.7855 131.613 47.0131 134.388 47.0131C135.862 47.0131 137.205 47.1975 138.419 47.5628C139.637 47.9299 140.478 48.3004 140.942 48.6762L141.863 49.3442C142.626 50.0313 143.009 50.6106 143.009 51.0837C143.009 51.5534 142.713 52.2006 142.124 53.0251C141.287 54.2046 140.428 54.7925 139.543 54.7925C139.03 54.7925 138.392 54.556 137.629 54.0828C137.557 54.0376 137.415 53.921 137.209 53.7349C137 53.5453 136.81 53.3904 136.636 53.2687C136.117 52.9625 135.461 52.8094 134.664 52.8094C133.866 52.8094 133.203 52.9938 132.677 53.3591C132.15 53.7262 131.887 54.2341 131.887 54.883C131.887 55.5284 132.199 56.052 132.822 56.4556C133.449 56.8557 134.231 57.1271 135.164 57.2697C136.096 57.4089 137.114 57.6281 138.216 57.9238C139.322 58.216 140.342 58.5744 141.276 58.9954C142.207 59.4181 142.987 60.1539 143.61 61.2012C144.237 62.2501 144.553 63.5426 144.553 65.077C144.553 66.6078 144.234 67.956 143.596 69.1198C142.958 70.2853 142.124 71.1864 141.095 71.8265C139.103 73.0756 136.978 73.6983 134.722 73.6983C133.565 73.6983 132.474 73.5626 131.445 73.2948C130.415 73.0216 129.582 72.6859 128.944 72.2858C127.639 71.5308 126.729 70.8002 126.218 70.0939L125.884 69.7043Z" fill="black"/>
<path d="M170.176 47.9316C171.38 48.7353 171.982 49.5112 171.982 50.2627C171.982 50.7132 171.699 51.3395 171.133 52.1414L163.18 63.5531V70.3027C163.18 70.8454 163.16 71.2542 163.122 71.5273C163.088 71.797 162.972 72.1083 162.774 72.4597C162.58 72.8129 162.248 73.0616 161.781 73.2043C161.317 73.3435 160.69 73.413 159.903 73.413C159.12 73.413 158.493 73.3435 158.025 73.2043C157.561 73.0616 157.23 72.8077 157.032 72.4458C156.833 72.0805 156.715 71.7622 156.677 71.4925C156.642 71.2194 156.626 70.8002 156.626 70.2331V63.5531L148.673 52.1414C148.107 51.3395 147.825 50.7132 147.825 50.2627C147.825 49.5112 148.363 48.7875 149.441 48.0917C150.523 47.3958 151.297 47.0479 151.761 47.0479C152.229 47.0479 152.599 47.1436 152.871 47.3332C153.286 47.5941 153.728 48.076 154.197 48.7805L159.903 57.548L165.609 48.7805C166.076 48.076 166.482 47.6115 166.827 47.3889C167.169 47.1627 167.568 47.0479 168.023 47.0479C168.476 47.0479 169.194 47.3436 170.176 47.9316Z" fill="black"/>
<mask id="mask0_1_505" style="mask-type:luminance" maskUnits="userSpaceOnUse" x="63" y="44" width="8" height="31">
<path d="M63.104 44.3467H70.992V74.184H63.104V44.3467Z" fill="white"/>
</mask>
<g mask="url(#mask0_1_505)">
<mask id="mask1_1_505" style="mask-type:luminance" maskUnits="userSpaceOnUse" x="50" y="44" width="35" height="34">
<path d="M84.0601 60.777L67.0806 77.0735L50.1029 60.777L67.0806 44.4824L84.0601 60.777Z" fill="white"/>
</mask>
<g mask="url(#mask1_1_505)">
<mask id="mask2_1_505" style="mask-type:luminance" maskUnits="userSpaceOnUse" x="50" y="44" width="35" height="34">
<path d="M84.0601 60.777L67.0806 77.0735L50.1029 60.777L67.0806 44.4824L84.0601 60.777Z" fill="white"/>
</mask>
<g mask="url(#mask2_1_505)">
<mask id="mask3_1_505" style="mask-type:luminance" maskUnits="userSpaceOnUse" x="50" y="44" width="35" height="34">
<path d="M84.0601 60.777L67.0806 77.0735L50.1029 60.777L67.0806 44.4824L84.0601 60.777Z" fill="white"/>
</mask>
<g mask="url(#mask3_1_505)">
<path d="M69.4822 74.0883C70.1891 74.0883 70.7618 73.5386 70.7618 72.8602V51.2215L67.4721 45.0042C67.309 44.6998 66.8522 44.6998 66.6909 45.0042L63.4012 51.2215V72.8602C63.4012 73.5386 63.974 74.0883 64.6809 74.0883H69.4822ZM68.1808 51.6268C68.1772 51.6268 68.1754 51.6251 68.1754 51.6251C68.1717 51.6251 68.1699 51.6268 68.1699 51.6268C68.1717 51.6251 68.1736 51.6199 68.1754 51.6181C68.1772 51.6199 68.1772 51.6233 68.1808 51.6268ZM64.2024 51.4059L66.2451 47.551H67.918L69.9607 51.4059V51.4964C69.7957 51.6912 69.5474 51.8199 69.2665 51.8182C68.7753 51.8182 68.3747 51.4337 68.3747 50.9623C68.3729 50.8545 68.2841 50.7692 68.1754 50.7692C68.063 50.7675 67.9724 50.8545 67.9742 50.9623C67.9742 51.4337 67.5736 51.8182 67.0806 51.8199C66.5876 51.8182 66.1871 51.4337 66.1871 50.9623C66.1889 50.8545 66.0982 50.7675 65.9877 50.7692C65.8771 50.7692 65.7883 50.8545 65.7865 50.9623C65.7865 51.4337 65.3859 51.8182 64.8947 51.8182C64.6138 51.8199 64.3673 51.6912 64.2024 51.4964V51.4059ZM65.9877 51.6181C65.9895 51.6199 65.9913 51.6251 65.9931 51.6268C65.9913 51.6251 65.9895 51.6268 65.9877 51.6251C65.9877 51.6251 65.9859 51.6268 65.9822 51.6268C65.9859 51.6233 65.9859 51.6199 65.9877 51.6181ZM69.1179 69.0157V54.0309C69.1179 53.9248 69.1632 53.8274 69.2357 53.7578C69.3082 53.6882 69.4079 53.6465 69.5184 53.6465C69.7414 53.6465 69.9208 53.8187 69.9208 54.0309V69.0157C69.9208 69.2297 69.7414 69.4002 69.5184 69.4002C69.2973 69.4002 69.1179 69.2279 69.1179 69.0157ZM64.2024 71.6564C64.2024 71.4389 64.3854 71.2632 64.6102 71.265H69.5529C69.7776 71.2632 69.9607 71.4389 69.9607 71.6564V71.8843H64.2024V71.6564ZM64.2024 72.6584V72.3975H69.9607V72.6584C69.9607 73.0237 69.6526 73.3194 69.2701 73.3194H64.8911C64.5105 73.3194 64.2024 73.0237 64.2024 72.6584Z" fill="black"/>
</g>
</g>
</g>
</g>
</svg>
